<svg width="40" height="40" viewBox="0 0 40 40" fill="none" xmlns="http://www.w3.org/2000/svg">
  <rect width="40" height="40" rx="8" fill="#3B82F6"/>
  <path d="M20 8C13.3726 8 8 13.3726 8 20C8 26.6274 13.3726 32 20 32C26.6274 32 32 26.6274 32 20C32 13.3726 26.6274 8 20 8ZM20 12C22.2091 12 24 13.7909 24 16C24 18.2091 22.2091 20 20 20C17.7909 20 16 18.2091 16 16C16 13.7909 17.7909 12 20 12ZM20 28.4C17.6364 28.4 15.4691 27.4191 13.8782 25.8182C14.6782 23.8182 16.6182 22.4 19 22.4C19.1091 22.4 19.2182 22.4191 19.3273 22.4455C19.5455 22.4909 19.7727 22.5273 20 22.5273C20.2273 22.5273 20.4545 22.4909 20.6727 22.4455C20.7818 22.4191 20.8909 22.4 21 22.4C23.3818 22.4 25.3218 23.8182 26.1218 25.8182C24.5309 27.4191 22.3636 28.4 20 28.4Z" fill="white"/>
</svg> 